<svg xmlns="http://www.w3.org/2000/svg" viewBox="0 0 100 100">
  <defs>
    <linearGradient id="grad" x1="0%" y1="0%" x2="100%" y2="100%">
      <stop offset="0%" style="stop-color:#667eea;stop-opacity:1" />
      <stop offset="100%" style="stop-color:#764ba2;stop-opacity:1" />
    </linearGradient>
  </defs>
  <rect width="100" height="100" rx="20" fill="url(#grad)"/>
  <path d="M50 25 C35 25 25 35 25 50 C25 65 35 75 50 75 C65 75 75 65 75 50 C75 35 65 25 50 25 Z M50 30 C62 30 70 38 70 50 C70 62 62 70 50 70 C38 70 30 62 30 50 C30 38 38 30 50 30 Z" fill="white"/>
  <circle cx="42" cy="45" r="4" fill="white"/>
  <circle cx="58" cy="45" r="4" fill="white"/>
  <path d="M40 58 Q50 65 60 58" stroke="white" stroke-width="3" fill="none" stroke-linecap="round"/>
</svg>
